# xmcd CD database file generated by Grip 2.96
# 
# Track frame offsets:
#       150
#       15495
#       41224
#       63364
#       77205
#       96536
#       119519
#       141812
#       153476
#       169977
#       192846
#       224446
#       245390
#       262473
#       279388
# 
# Disc length: 4012 seconds
# 
# Revision: 0
# Processed by: cddbd v1.4PL0 Copyright (c) Steve Scherf et al.
# Submitted via: Grip 2.96
# 
DISCID=e60faa0f
DTITLE=Bruce Marshall Group - Kalispell
DYEAR=1900
DGENRE=
TTITLE0=Last Call and First Light
TTITLE1=Kalispell
TTITLE2=Can't Cheat Fate
TTITLE3=Dancehall Sweat
TTITLE4=Say Little
TTITLE5=Can I Change My Mind
TTITLE6=Cold April Rain
TTITLE7=What Kind of Fool
TTITLE8=I Need a Raise
TTITLE9=Paper Trail
TTITLE10=This Ol' Cowboy
TTITLE11=Rescue
TTITLE12=Man Out of Time
TTITLE13=House Lo Mein
TTITLE14=Kalispell (edit)
EXTD=
EXTT0=
EXTT1=
EXTT2=
EXTT3=
EXTT4=
EXTT5=
EXTT6=
EXTT7=
EXTT8=
EXTT9=
EXTT10=
EXTT11=
EXTT12=
EXTT13=
EXTT14=
PLAYORDER=
